<mxfile host="app.diagrams.net" modified="2021-08-25T14:43:10.650Z" agent="5.0 (Windows NT 10.0; Win64; x64) AppleWebKit/537.36 (KHTML, like Gecko) Chrome/92.0.4515.159 Safari/537.36" etag="4gX-T5tncHAkWT9TUpfq" version="14.9.9" type="github">
  <diagram id="jXq05A-kkLq9jR5GUHfn" name="Page-1">
    <mxGraphModel dx="1422" dy="798" grid="1" gridSize="10" guides="1" tooltips="1" connect="1" arrows="1" fold="1" page="1" pageScale="1" pageWidth="827" pageHeight="1169" math="0" shadow="0">
      <root>
        <mxCell id="0" />
        <mxCell id="1" parent="0" />
        <mxCell id="GCmu-5vUVRaZINiCxsOV-3" value="" style="whiteSpace=wrap;html=1;aspect=fixed;strokeColor=#6E99FF;" vertex="1" parent="1">
          <mxGeometry x="200" y="220" width="80" height="80" as="geometry" />
        </mxCell>
        <mxCell id="GCmu-5vUVRaZINiCxsOV-4" value="" style="whiteSpace=wrap;html=1;aspect=fixed;strokeColor=#6E99FF;" vertex="1" parent="1">
          <mxGeometry x="410" y="310" width="80" height="80" as="geometry" />
        </mxCell>
        <mxCell id="GCmu-5vUVRaZINiCxsOV-5" value="" style="ellipse;whiteSpace=wrap;html=1;strokeColor=#6E99FF;" vertex="1" parent="1">
          <mxGeometry x="300" y="100" width="120" height="80" as="geometry" />
        </mxCell>
        <mxCell id="GCmu-5vUVRaZINiCxsOV-6" value="" style="ellipse;shape=cloud;whiteSpace=wrap;html=1;strokeColor=#6E99FF;fillColor=#66FF7F;" vertex="1" parent="1">
          <mxGeometry x="530" y="180" width="120" height="80" as="geometry" />
        </mxCell>
      </root>
    </mxGraphModel>
  </diagram>
</mxfile>
